{
	"asset":{
		"generator":"Khronos glTF Blender I/O v4.0.44",
		"version":"2.0"
	},
	"extensionsUsed":[
		"KHR_texture_transform",
		"KHR_materials_specular",
		"KHR_materials_ior"
	],
	"extensionsRequired":[
		"KHR_texture_transform"
	],
	"scene":0,
	"scenes":[
		{
			"name":"Scene",
			"nodes":[
				0
			]
		}
	],
	"nodes":[
		{
			"mesh":0,
			"name":"Lacalle",
			"rotation":[
				0.49999991059303284,
				-0.5,
				0.5,
				0.5000000596046448
			],
			"scale":[
				0.0037858912255614996,
				0.0037858912255614996,
				0.0037858912255614996
			],
			"translation":[
				-0.5473403930664062,
				0.1742023080587387,
				0.05088663101196289
			]
		}
	],
	"materials":[
		{
			"doubleSided":true,
			"emissiveFactor":[
				1,
				1,
				1
			],
			"emissiveTexture":{
				"extensions":{
					"KHR_texture_transform":{
						"offset":[
							0,
							-1
						]
					}
				},
				"index":0
			},
			"extensions":{
				"KHR_materials_specular":{
					"specularTexture":{
						"extensions":{
							"KHR_texture_transform":{
								"offset":[
									0,
									-1
								]
							}
						},
						"index":1
					}
				},
				"KHR_materials_ior":{
					"ior":1.4500000476837158
				}
			},
			"name":"streets",
			"normalTexture":{
				"extensions":{
					"KHR_texture_transform":{
						"offset":[
							0,
							-1
						]
					}
				},
				"index":2
			},
			"pbrMetallicRoughness":{
				"baseColorTexture":{
					"extensions":{
						"KHR_texture_transform":{
							"offset":[
								0,
								-1
							]
						}
					},
					"index":3
				},
				"metallicRoughnessTexture":{
					"extensions":{
						"KHR_texture_transform":{
							"offset":[
								0,
								-1
							]
						}
					},
					"index":4
				},
				"roughnessFactor":0.4343145787715912
			}
		}
	],
	"meshes":[
		{
			"name":"Mesh.059",
			"primitives":[
				{
					"attributes":{
						"POSITION":0,
						"NORMAL":1,
						"TEXCOORD_0":2
					},
					"indices":3,
					"material":0
				}
			]
		}
	],
	"textures":[
		{
			"sampler":0,
			"source":0
		},
		{
			"sampler":0,
			"source":1
		},
		{
			"sampler":0,
			"source":2
		},
		{
			"sampler":0,
			"source":3
		},
		{
			"sampler":0,
			"source":4
		}
	],
	"images":[
		{
			"mimeType":"image/png",
			"name":"streetsEmmision",
			"uri":"streetsEmmision.png"
		},
		{
			"mimeType":"image/png",
			"name":"streetsSpecular",
			"uri":"streetsSpecular.png"
		},
		{
			"mimeType":"image/png",
			"name":"streetsNormal",
			"uri":"streetsNormal.png"
		},
		{
			"mimeType":"image/png",
			"name":"streetsalbedo",
			"uri":"streetsalbedo.png"
		},
		{
			"mimeType":"image/png",
			"name":"streetsSpecular",
			"uri":"streetsSpecular-1.png"
		}
	],
	"accessors":[
		{
			"bufferView":0,
			"componentType":5126,
			"count":8699,
			"max":[
				3965.1103515625,
				3879.11865234375,
				26.22517204284668
			],
			"min":[
				-4034.89208984375,
				-4120.8837890625,
				-18.6110782623291
			],
			"type":"VEC3"
		},
		{
			"bufferView":1,
			"componentType":5126,
			"count":8699,
			"type":"VEC3"
		},
		{
			"bufferView":2,
			"componentType":5126,
			"count":8699,
			"type":"VEC2"
		},
		{
			"bufferView":3,
			"componentType":5123,
			"count":16890,
			"type":"SCALAR"
		}
	],
	"bufferViews":[
		{
			"buffer":0,
			"byteLength":104388,
			"byteOffset":0,
			"target":34962
		},
		{
			"buffer":0,
			"byteLength":104388,
			"byteOffset":104388,
			"target":34962
		},
		{
			"buffer":0,
			"byteLength":69592,
			"byteOffset":208776,
			"target":34962
		},
		{
			"buffer":0,
			"byteLength":33780,
			"byteOffset":278368,
			"target":34963
		}
	],
	"samplers":[
		{
			"magFilter":9729,
			"minFilter":9987
		}
	],
	"buffers":[
		{
			"byteLength":312148,
			"uri":"Calle.bin"
		}
	]
}
