# Blender 4.0.1
# www.blender.org
mtllib escopeta.mtl
o stock
v -0.330726 -0.075273 -0.010000
v -0.341250 0.047077 -0.010000
v -0.330726 -0.075273 0.010000
v -0.341250 0.047077 0.010000
v -0.176958 0.077158 -0.000860
v -0.176958 0.077158 0.019140
v -0.206991 0.027437 -0.010000
v -0.123318 0.065823 -0.010000
v -0.206991 0.027437 0.010000
v -0.123318 0.065823 0.010000
v 0.212965 0.078867 0.023472
v 0.212965 0.090755 0.014835
v 0.212965 0.086214 0.000859
v 0.212965 0.071519 0.000859
v 0.212965 0.066978 0.014835
v 0.405353 0.078867 0.023472
v 0.405353 0.090755 0.014835
v 0.405353 0.086214 0.000859
v 0.405353 0.071519 0.000859
v 0.405353 0.066978 0.014835
v 0.405353 0.078867 0.023472
v 0.405353 0.090755 0.014835
v 0.405353 0.086214 0.000859
v 0.405353 0.071519 0.000859
v 0.405353 0.066978 0.014835
v 0.212965 0.078867 -0.021528
v 0.212965 0.090755 -0.012891
v 0.212965 0.086214 0.001085
v 0.212965 0.071519 0.001085
v 0.212965 0.066978 -0.012891
v 0.405353 0.078867 -0.021528
v 0.405353 0.090755 -0.012891
v 0.405353 0.086214 0.001085
v 0.405353 0.071519 0.001085
v 0.405353 0.066978 -0.012891
v 0.405353 0.078867 -0.021528
v 0.405353 0.090755 -0.012891
v 0.405353 0.086214 0.001085
v 0.405353 0.071519 0.001085
v 0.405353 0.066978 -0.012891
v 0.212965 0.078867 0.023472
v 0.212965 0.090755 0.014835
v 0.212965 0.086214 0.000859
v 0.212965 0.071519 0.000859
v 0.212965 0.066979 0.014835
v 0.212965 0.078867 -0.021528
v 0.212965 0.090755 -0.012891
v 0.212965 0.086214 0.001085
v 0.212965 0.071519 0.001085
v 0.212965 0.066979 -0.012891
v -0.045580 0.066979 0.014835
v -0.045580 0.071519 0.000859
v -0.045580 0.086214 0.000859
v -0.045580 0.090755 0.014835
v -0.045580 0.078867 0.023472
v -0.045580 0.066979 -0.012891
v -0.045580 0.078867 -0.021528
v -0.045580 0.090755 -0.012891
v -0.045580 0.086214 0.001085
v -0.045580 0.071519 0.001085
v 0.147548 0.048285 -0.008000
v 0.147548 0.048285 0.008000
v 0.209476 0.066930 -0.010000
v 0.209476 0.066930 0.010000
v 0.210173 0.060162 -0.008000
v 0.210173 0.060162 0.008000
v -0.012554 0.067618 -0.010000
v -0.012554 0.067618 0.010000
v -0.012555 0.040055 -0.008000
v -0.012555 0.040055 0.008000
v 0.015199 0.067532 -0.010000
v 0.015199 0.067532 0.010000
v 0.007458 0.041084 -0.008000
v 0.007458 0.041084 0.008000
v -0.073029 0.059265 0.009707
v -0.050350 0.068210 0.009707
v -0.073162 0.076528 0.009707
v -0.048356 0.077075 0.009707
v -0.073029 0.059265 0.011707
v -0.050350 0.068210 0.011707
v -0.073162 0.076528 0.011707
v -0.048356 0.077075 0.011707
v -0.061689 0.060277 0.009707
v -0.061689 0.060277 0.011707
v -0.078631 0.067896 0.009707
v -0.078631 0.067896 0.011707
v -0.060762 0.075580 0.009707
v -0.060762 0.075580 0.011707
v -0.067837 0.120891 0.011707
v -0.053851 0.096203 0.011707
v -0.053851 0.096203 0.009707
v -0.067837 0.120891 0.009707
v -0.036620 0.104089 0.011707
v -0.036620 0.104089 0.009707
v -0.057241 0.106235 0.011707
v -0.057241 0.106235 0.009707
v -0.059484 0.121532 0.011707
v -0.059484 0.121532 0.009707
v -0.062380 0.098236 0.011707
v -0.062380 0.098236 0.009707
v -0.048565 0.098246 0.009707
v -0.048565 0.098246 0.011707
v -0.041290 0.095280 0.011707
v -0.041290 0.095280 0.009707
v -0.036711 0.099684 0.011707
v -0.036711 0.099684 0.009707
v -0.073029 0.059265 -0.012268
v -0.050350 0.068210 -0.012268
v -0.073162 0.076528 -0.012268
v -0.048356 0.077075 -0.012268
v -0.073029 0.059265 -0.010268
v -0.050350 0.068210 -0.010268
v -0.073162 0.076528 -0.010268
v -0.048356 0.077075 -0.010268
v -0.061689 0.060277 -0.012268
v -0.061689 0.060277 -0.010268
v -0.078631 0.067896 -0.012268
v -0.078631 0.067896 -0.010268
v -0.060762 0.075580 -0.012268
v -0.060762 0.075580 -0.010268
v -0.067837 0.120891 -0.010268
v -0.053851 0.096203 -0.010268
v -0.053851 0.096203 -0.012268
v -0.067837 0.120891 -0.012268
v -0.036620 0.104089 -0.010268
v -0.036620 0.104089 -0.012268
v -0.057241 0.106235 -0.010268
v -0.057241 0.106235 -0.012268
v -0.059484 0.121532 -0.010268
v -0.059484 0.121532 -0.012268
v -0.062380 0.098236 -0.010268
v -0.062380 0.098236 -0.012268
v -0.048565 0.098246 -0.012268
v -0.048565 0.098246 -0.010268
v -0.041290 0.095280 -0.010268
v -0.041290 0.095280 -0.012268
v -0.036711 0.099684 -0.010268
v -0.036711 0.099684 -0.012268
v -0.083492 0.015945 -0.001398
v -0.079412 0.010688 -0.001398
v -0.088237 0.042433 -0.001398
v -0.074819 0.042433 -0.001398
v -0.083492 0.015945 0.002602
v -0.079412 0.010688 0.002602
v -0.088237 0.042433 0.002602
v -0.074819 0.042433 0.002602
v -0.082489 0.026388 -0.001398
v -0.079819 0.022247 -0.001398
v -0.079819 0.022247 0.002602
v -0.082489 0.026388 0.002602
v -0.176608 0.013037 -0.010000
v -0.206991 0.027437 -0.010000
v -0.176608 0.013037 0.010000
v -0.206991 0.027437 0.010000
v -0.087619 0.035280 -0.010000
v -0.088257 0.081284 -0.010000
v -0.088257 0.081284 0.010000
v -0.087619 0.035280 0.010000
v -0.043471 0.067716 -0.010000
v -0.043471 0.067716 0.010000
v -0.050042 0.092547 -0.010000
v -0.050042 0.092547 0.010000
v -0.043470 0.038531 -0.010000
v -0.043470 0.038531 0.010000
v -0.013820 0.067618 -0.010000
v -0.013820 0.067618 0.010000
v -0.013821 0.040055 -0.008000
v -0.013821 0.040055 0.008000
v -0.098027 0.004013 -0.005000
v -0.047751 0.013028 -0.005000
v -0.122839 0.024219 -0.005000
v -0.050383 0.040586 -0.005000
v -0.098027 0.004013 0.005000
v -0.047751 0.013028 0.005000
v -0.122839 0.024219 0.005000
v -0.050383 0.040586 0.005000
v -0.073146 0.005100 -0.005000
v -0.073146 0.005100 0.005000
v -0.072889 0.003607 -0.005000
v -0.072889 0.003607 0.005000
v -0.050913 0.013300 0.005000
v -0.050913 0.013300 -0.005000
v -0.098336 0.006795 -0.005000
v -0.098336 0.006795 0.005000
v -0.044566 0.026807 -0.005000
v -0.044566 0.026807 0.005000
v -0.046147 0.026943 0.005000
v -0.046147 0.026943 -0.005000
v -0.051953 0.086851 0.012915
v -0.051953 0.077880 0.019433
v -0.051953 0.068909 0.012915
v -0.051953 0.072335 0.002368
v -0.051953 0.083425 0.002368
v -0.051953 0.086851 -0.012915
v -0.051953 0.077880 -0.019433
v -0.051953 0.068909 -0.012915
v -0.051953 0.072335 -0.002368
v -0.051953 0.083425 -0.002368
v -0.041378 0.077880 0.022500
v -0.041378 0.089768 0.013863
v -0.041378 0.085227 -0.000113
v -0.041378 0.070533 -0.000113
v -0.041378 0.065992 0.013863
v -0.041378 0.077880 -0.022500
v -0.041378 0.089768 -0.013863
v -0.041378 0.085227 0.000113
v -0.041378 0.070533 0.000113
v -0.041378 0.065992 -0.013863
vn -0.0028 0.0327 -0.9995
vn -0.0218 0.2540 -0.9670
vn -0.0000 -0.0000 -1.0000
vn 0.0063 -0.1405 0.9901
vn 0.0699 -0.2210 0.9728
vn -0.0048 -0.0330 0.9994
vn 0.6387 -0.7694 -0.0000
vn 0.0201 0.9998 -0.0000
vn 0.2067 0.9784 -0.0000
vn -0.9963 -0.0857 -0.0000
vn -0.1801 0.9836 -0.0000
vn 0.4170 -0.9089 -0.0000
vn -0.0000 -0.5878 -0.8090
vn -0.0000 -0.9511 0.3090
vn -0.0000 0.9511 0.3090
vn -0.0000 0.5878 -0.8090
vn -1.0000 -0.0000 -0.0000
vn -0.0000 -0.5878 0.8090
vn -0.0000 -0.9511 -0.3090
vn -0.0000 0.9511 -0.3090
vn -0.0000 0.5878 0.8090
vn 1.0000 -0.0000 -0.0000
vn 0.1863 -0.9825 -0.0000
vn 0.0031 1.0000 -0.0000
vn 0.0513 -0.9987 -0.0000
vn 0.0014 -0.0741 -0.9972
vn 0.0018 -0.0738 -0.9973
vn 0.0037 -0.0724 -0.9974
vn 0.0018 -0.0738 0.9973
vn 0.0014 -0.0741 0.9972
vn 0.0037 -0.0724 0.9974
vn 0.0005 -0.0786 -0.9969
vn 0.0244 -0.2652 -0.9639
vn 0.0250 -0.2655 -0.9638
vn -0.0002 -0.2520 0.9677
vn 0.0071 -0.0816 0.9966
vn 0.0070 -0.0749 0.9972
vn -0.0000 -0.0000 1.0000
vn 0.0889 -0.9960 -0.0000
vn 0.9756 -0.2194 -0.0000
vn 0.3605 -0.9328 -0.0000
vn -0.8447 0.5352 -0.0000
vn 0.5732 -0.8194 -0.0000
vn -0.8388 -0.5444 -0.0000
vn 0.0762 0.9971 -0.0000
vn 0.9611 0.2761 -0.0000
vn -0.9975 -0.0713 -0.0000
vn 0.1035 0.9946 -0.0000
vn 0.9894 0.1451 -0.0000
vn -0.0765 0.9971 -0.0000
vn -0.9722 -0.2342 -0.0000
vn -0.3775 -0.9260 -0.0000
vn 0.6933 -0.7207 -0.0000
vn 0.9998 -0.0207 -0.0000
vn -0.7900 -0.6131 -0.0000
vn 0.9946 -0.1036 -0.0000
vn 0.9994 0.0352 -0.0000
vn -0.9923 -0.1238 -0.0000
vn -0.9414 -0.3373 -0.0000
vn 0.9707 -0.2404 -0.0000
vn -0.9954 0.0956 -0.0000
vn -0.4130 0.9107 -0.0000
vn 0.2425 -0.9702 -0.0000
vn -0.2827 0.9592 -0.0000
vn 0.0734 -0.9973 -0.0000
vn 0.0033 1.0000 -0.0000
vn 0.9667 0.2558 -0.0000
vn -0.0002 -0.0724 -0.9974
vn 0.0673 -0.0000 -0.9977
vn -0.0002 -0.0724 0.9974
vn 0.0673 -0.0000 0.9977
vn -0.4283 -0.9037 -0.0000
vn 0.1704 -0.9854 -0.0000
vn -0.0162 -0.9999 -0.0000
vn 0.9963 0.0860 -0.0000
vn 0.9743 -0.2252 -0.0000
vn -0.9998 0.0175 -0.0000
vn -0.9550 -0.2965 -0.0000
vn -0.6315 -0.7754 -0.0000
vn 0.3360 0.9419 -0.0000
vn -0.1426 0.9898 -0.0000
vn 0.3509 -0.9364 -0.0000
vn -0.7132 0.7010 -0.0000
vn 0.5795 0.8150 -0.0000
vn 0.9213 0.3889 -0.0000
vn -0.2284 0.5722 0.7876
vn -0.2284 -0.5722 0.7876
vn -0.2284 -0.9259 -0.3008
vn -0.2284 -0.0000 -0.9736
vn -0.2284 0.9259 -0.3008
vn -0.2284 0.5722 -0.7876
vn -0.2284 -0.5722 -0.7876
vn -0.2284 -0.9259 0.3008
vn -0.2284 -0.0000 0.9736
vn -0.2284 0.9259 0.3008
vn -0.0427 0.4968 -0.8668
vn 0.1123 -0.2449 0.9630
vn 0.0061 1.0000 -0.0000
vn -0.0002 -0.0753 -0.9972
vn -0.0002 -0.0753 0.9972
vn -0.0009 -0.2835 0.9590
vt 0.015429 0.921639
vt 0.543025 0.979194
vt 0.559480 0.874880
vt 0.489427 0.993724
vt 0.144378 0.787420
vt 0.505549 0.923286
vt 0.534834 0.874170
vt 0.350588 0.855431
vt 0.343419 0.922178
vt 0.376932 0.861726
vt 0.043739 0.668870
vt 0.096237 0.899567
vt 0.043739 0.899567
vt 0.447772 0.947115
vt 0.481285 0.886663
vt 0.532091 0.981091
vt 0.561755 0.882362
vt 0.532091 0.882362
vt -0.000000 0.193024
vt 0.974449 0.236816
vt 0.974449 0.193024
vt -0.000000 0.220089
vt -0.000000 0.236816
vt -0.000000 0.149231
vt 0.974449 0.165958
vt -0.000000 0.165958
vt 0.974449 0.149231
vt 0.998565 0.628220
vt 0.850208 0.687503
vt 0.832896 0.511271
vt 0.977573 0.749153
vt 0.039297 0.347331
vt 1.000000 0.301684
vt 0.039297 0.301684
vt 0.039297 0.329895
vt 1.000000 0.347331
vt 0.039297 0.256037
vt 1.000000 0.273472
vt 0.039297 0.273472
vt 1.000000 0.256037
vt 0.850208 0.687504
vt 0.917492 0.511272
vt 0.998565 0.628220
vt 0.832896 0.511272
vt 0.956289 0.107674
vt 0.729220 0.084783
vt 0.956289 0.084783
vt 0.695847 0.042518
vt 0.594560 0.111781
vt 0.695847 0.111781
vt 0.699429 0.111645
vt 0.636552 0.053016
vt 0.699429 0.053016
vt 0.598406 0.111658
vt 0.664574 0.044530
vt 0.591823 0.041927
vt 0.250121 0.090374
vt 0.189733 0.036025
vt 0.250121 0.042064
vt 0.408908 0.841604
vt 0.144314 0.894470
vt 0.408908 0.894470
vt 0.493854 0.084783
vt 0.159671 0.107674
vt 0.159671 0.084783
vt 0.222099 0.019273
vt 0.956473 0.109263
vt 0.959006 0.085698
vt 0.255999 0.111359
vt 0.365928 0.731569
vt 0.407759 0.703122
vt 0.405615 0.644388
vt 0.393663 0.584943
vt 0.316517 0.707339
vt 0.348219 0.596919
vt 0.314099 0.653101
vt 0.505582 0.579988
vt 0.498415 0.605713
vt 0.505063 0.523183
vt 0.528255 0.521513
vt 0.540270 0.626489
vt 0.484944 0.546205
vt 0.615631 0.638017
vt 0.617965 0.677941
vt 0.514988 0.656075
vt 0.378668 0.615131
vt 0.349245 0.633462
vt 0.349245 0.615131
vt 0.378668 0.633462
vt 0.349245 0.651792
vt 0.363957 0.651792
vt 0.363957 0.615131
vt 0.378668 0.651792
vt 0.485387 0.680474
vt 0.483545 0.799237
vt 0.851809 0.968371
vt 0.853828 0.844661
vt 0.109457 0.866271
vt 0.142970 0.805818
vt 0.936682 0.387823
vt 0.936682 0.483259
vt 0.268175 0.483260
vt 0.268175 0.387823
vt 0.964599 0.994370
vt 0.993603 0.924502
vt 0.993605 0.853303
vt 0.781870 0.493893
vt 0.781870 0.666885
vt 0.667893 0.666885
vt 0.667893 0.493893
vt 0.006004 0.483260
vt 0.006004 0.387823
vt 0.586648 0.120263
vt 0.586648 0.043852
vt 0.542608 0.043852
vt 0.542608 0.120263
vt 0.249686 0.896621
vt 0.249686 0.758402
vt 0.111466 0.758402
vt 0.111466 0.896621
vt 0.532022 0.067730
vt 0.532022 0.090620
vt 0.461296 0.090620
vt 0.461296 0.067730
vt 0.478998 0.117725
vt 0.593361 0.117457
vt 0.586778 0.042536
vt 0.478999 0.038394
vt 0.284142 0.096886
vt 0.284142 0.042091
vt 0.215649 0.035242
vt 0.215649 0.103735
vt 0.066516 0.017546
vt 0.066516 0.102243
vt 0.045628 0.102243
vt 0.045628 0.017546
vt 0.372630 0.636651
vt 0.372630 0.659663
vt 0.366779 0.659663
vt 0.360927 0.659663
vt 0.355075 0.659663
vt 0.352149 0.659663
vt 0.349223 0.648157
vt 0.349223 0.636651
vt 0.360927 0.636651
vt 0.372630 0.648157
vt 0.369705 0.659663
vt 0.349223 0.659663
vt 0.352149 0.636651
vt 0.366779 0.636651
vt 0.355075 0.636651
vt 0.063232 0.313982
vt 0.038796 0.295314
vt 0.048130 0.265110
vt 0.078335 0.265110
vt 0.087668 0.295314
vt 0.000000 0.336131
vt 0.000000 0.301684
vt 0.000000 0.267237
vt 0.000000 0.280394
vt -1.230983 0.000000
vt -0.770244 0.000000
vt 0.000000 0.322973
vt 0.054106 0.295493
vt 0.046887 0.312344
vt 0.065787 0.322759
vt 0.084687 0.312344
vt 0.077468 0.295493
vt 0.077468 0.295765
vt 0.084687 0.278914
vt 0.065787 0.268500
vt 0.046887 0.278914
vt 0.054106 0.295765
vt 0.040909 0.628436
vt 0.115092 0.836535
vt 0.317075 0.915883
vt 0.096237 0.668870
vt 0.561755 0.981091
vt 0.974449 0.220089
vt 0.917493 0.511271
vt 1.000000 0.329895
vt 0.977573 0.749153
vt 0.729220 0.107674
vt 0.594560 0.042518
vt 0.636552 0.111645
vt 0.698474 0.111440
vt 0.189733 0.096413
vt 0.144314 0.841604
vt 0.493854 0.107674
vt 0.731353 0.044344
s 1
usemtl Material_#28
f 2/1/1 8/2/2 7/3/3
f 9/3/4 6/4/5 4/1/6
f 7/5/7 3/6/7 1/7/7
f 5/8/8 10/9/9 8/10/9
f 1/11/10 4/12/10 2/13/10
f 4/14/11 5/8/8 2/15/11
f 9/16/12 8/17/12 10/18/12
f 66/45/23 61/46/23 65/47/23
f 71/48/24 68/49/24 72/50/24
f 74/51/25 69/52/25 73/53/25
f 67/54/26 73/55/27 69/56/28
f 74/55/29 68/54/30 70/56/31
f 70/57/17 67/58/17 69/59/17
f 63/60/24 72/61/24 64/62/24
f 61/63/25 74/64/25 73/65/25
f 73/66/32 63/67/33 65/68/34
f 66/68/35 72/69/36 74/66/37
f 151/94/3 152/95/3 156/96/3
f 156/96/3 155/97/3 151/94/3
f 152/10/62 154/9/62 157/98/62
f 157/98/62 156/99/62 152/10/62
f 154/95/38 153/94/38 158/97/38
f 158/97/38 157/96/38 154/95/38
f 153/100/63 151/101/63 155/102/63
f 155/102/63 158/103/63 153/100/63
f 156/96/3 161/104/3 159/105/3
f 156/96/3 159/105/3 163/106/3
f 155/97/3 156/96/3 163/106/3
f 157/107/64 162/108/64 161/109/64
f 161/109/64 156/110/64 157/107/64
f 158/97/38 164/106/38 160/105/38
f 158/97/38 160/105/38 162/104/38
f 157/96/38 158/97/38 162/104/38
f 155/102/65 163/111/65 164/112/65
f 164/112/65 158/103/65 155/102/65
f 166/113/66 165/114/66 159/115/66
f 159/115/66 160/116/66 166/113/66
f 160/117/67 159/118/67 161/119/67
f 161/119/67 162/120/67 160/117/67
f 167/121/25 168/122/25 164/123/25
f 164/123/25 163/124/25 167/121/25
f 159/125/68 165/126/68 167/127/68
f 167/127/69 163/128/69 159/125/69
f 168/127/70 166/126/70 160/125/70
f 160/125/71 164/128/71 168/127/71
f 168/129/22 167/130/22 165/131/22
f 165/131/22 166/132/22 168/129/22
f 153/133/72 154/134/72 152/135/72
f 152/135/72 151/136/72 153/133/72
f 169/137/3 171/138/3 183/139/3
f 169/137/3 183/139/3 177/140/3
f 182/141/3 188/142/3 185/143/3
f 182/141/3 185/143/3 170/144/3
f 177/140/3 182/141/3 170/144/3
f 177/140/3 170/144/3 179/145/3
f 169/137/3 177/140/3 179/145/3
f 186/146/38 187/147/38 181/139/38
f 174/137/38 186/146/38 181/139/38
f 174/137/38 181/139/38 178/140/38
f 180/145/38 174/137/38 178/140/38
f 173/144/38 180/145/38 178/140/38
f 173/144/38 178/140/38 184/141/38
f 173/144/38 184/141/38 175/148/38
f 179/145/73 180/140/73 173/148/74
f 173/148/74 169/144/74 179/145/73
f 185/145/75 186/140/75 174/148/76
f 174/148/76 170/144/76 185/145/75
f 188/149/77 187/142/77 176/148/78
f 176/148/78 172/144/78 188/149/77
f 171/144/79 169/137/79 173/138/79
f 173/138/79 175/148/79 171/144/79
f 183/150/80 184/139/80 178/140/81
f 178/140/81 177/145/81 183/150/80
f 170/137/82 174/138/82 180/140/73
f 180/140/73 179/145/73 170/137/82
f 177/145/81 178/140/81 181/141/83
f 181/141/83 182/151/83 177/145/81
f 171/137/84 175/138/84 184/139/80
f 184/139/80 183/150/80 171/137/84
f 188/142/3 172/148/3 185/143/3
f 186/146/38 176/138/38 187/147/38
f 172/137/85 176/138/85 186/140/75
f 186/140/75 185/145/75 172/137/85
f 182/151/83 181/141/83 187/142/77
f 187/142/77 188/149/77 182/151/83
f 7/3/3 1/174/3 2/1/1
f 2/1/1 5/4/96 8/2/2
f 4/1/6 3/174/38 9/3/4
f 9/3/4 10/2/97 6/4/5
f 7/5/7 9/175/7 3/6/7
f 5/8/8 6/176/98 10/9/9
f 1/11/10 3/177/10 4/12/10
f 4/14/11 6/176/98 5/8/8
f 9/16/12 7/178/12 8/17/12
f 66/45/23 62/183/23 61/46/23
f 71/48/24 67/184/24 68/49/24
f 74/51/25 70/185/25 69/52/25
f 67/54/26 71/186/99 73/55/27
f 74/55/29 72/186/100 68/54/30
f 70/57/17 68/187/17 67/58/17
f 63/60/24 71/188/24 72/61/24
f 61/63/25 62/189/25 74/64/25
f 65/68/34 61/190/3 73/66/32
f 73/66/32 71/69/99 63/67/33
f 74/66/37 62/190/38 66/68/35
f 66/68/35 64/67/101 72/69/36
usemtl Material_#29
f 11/19/13 17/20/13 16/21/13
f 13/22/14 17/20/14 12/23/14
f 15/24/15 19/25/15 14/26/15
f 15/24/16 16/21/16 20/27/16
f 25/28/17 22/29/17 23/30/17
f 31/21/18 27/23/18 26/19/18
f 32/20/19 28/22/19 27/23/19
f 34/25/20 30/24/20 29/26/20
f 30/24/21 31/21/21 26/19/21
f 38/30/17 36/31/17 40/28/17
f 54/32/13 41/33/13 55/34/13
f 53/35/14 42/36/14 54/32/14
f 51/37/15 44/38/15 52/39/15
f 55/34/16 45/40/16 51/37/16
f 42/41/17 44/42/17 45/43/17
f 46/33/18 58/32/18 57/34/18
f 47/36/19 59/35/19 58/32/19
f 49/38/20 56/37/20 60/39/20
f 56/37/21 46/33/21 57/34/21
f 50/43/17 48/44/17 47/41/17
f 51/41/22 53/42/22 54/43/22
f 58/43/22 60/44/22 56/41/22
f 190/152/17 189/153/17 193/154/17
f 190/152/17 193/154/17 192/155/17
f 191/156/17 190/152/17 192/155/17
f 200/32/86 189/157/86 190/158/86
f 190/158/86 199/34/86 200/32/86
f 199/34/87 190/158/87 191/159/87
f 191/159/87 203/37/87 199/34/87
f 203/37/88 191/159/88 192/160/88
f 192/160/88 202/39/88 203/37/88
f 202/161/89 192/161/89 193/162/89
f 193/162/89 201/162/89 202/161/89
f 201/35/90 193/163/90 189/157/90
f 189/157/90 200/32/90 201/35/90
f 198/154/17 194/153/17 195/152/17
f 197/155/17 198/154/17 195/152/17
f 196/156/17 197/155/17 195/152/17
f 205/32/91 204/34/91 195/158/91
f 195/158/91 194/157/91 205/32/91
f 204/34/92 208/37/92 196/159/92
f 196/159/92 195/158/92 204/34/92
f 208/37/93 207/39/93 197/160/93
f 197/160/93 196/159/93 208/37/93
f 207/161/94 206/162/94 198/162/94
f 198/162/94 197/161/94 207/161/94
f 206/35/95 205/32/95 194/157/95
f 194/157/95 198/163/95 206/35/95
f 201/164/22 200/165/22 199/166/22
f 201/164/22 199/166/22 203/167/22
f 202/168/22 201/164/22 203/167/22
f 207/169/22 208/170/22 204/171/22
f 207/169/22 204/171/22 205/172/22
f 206/173/22 207/169/22 205/172/22
f 11/19/13 12/23/13 17/20/13
f 13/22/14 18/179/14 17/20/14
f 15/24/15 20/27/15 19/25/15
f 15/24/16 11/19/16 16/21/16
f 23/30/17 24/180/17 25/28/17
f 25/28/17 21/31/17 22/29/17
f 31/21/18 32/20/18 27/23/18
f 32/20/19 33/179/19 28/22/19
f 34/25/20 35/27/20 30/24/20
f 30/24/21 35/27/21 31/21/21
f 40/28/17 39/180/17 38/30/17
f 38/30/17 37/29/17 36/31/17
f 54/32/13 42/36/13 41/33/13
f 53/35/14 43/181/14 42/36/14
f 51/37/15 45/40/15 44/38/15
f 55/34/16 41/33/16 45/40/16
f 45/43/17 41/182/17 42/41/17
f 42/41/17 43/44/17 44/42/17
f 46/33/18 47/36/18 58/32/18
f 47/36/19 48/181/19 59/35/19
f 49/38/20 50/40/20 56/37/20
f 56/37/21 50/40/21 46/33/21
f 47/41/17 46/182/17 50/43/17
f 50/43/17 49/42/17 48/44/17
f 54/43/22 55/182/22 51/41/22
f 51/41/22 52/44/22 53/42/22
f 56/41/22 57/182/22 58/43/22
f 58/43/22 59/42/22 60/44/22
usemtl Material_#26
f 85/70/3 77/71/3 87/72/3
f 85/70/3 87/72/3 78/73/3
f 75/74/3 85/70/3 78/73/3
f 78/73/3 76/75/3 83/76/3
f 75/74/3 78/73/3 83/76/3
f 84/76/38 80/75/38 82/73/38
f 79/74/38 84/76/38 82/73/38
f 88/72/38 81/71/38 86/70/38
f 82/73/38 88/72/38 86/70/38
f 79/74/38 82/73/38 86/70/38
f 83/76/39 84/76/39 79/74/39
f 79/74/39 75/74/39 83/76/39
f 76/75/40 78/73/40 82/73/40
f 82/73/40 80/75/40 76/75/40
f 101/77/41 102/77/41 90/78/41
f 90/78/41 91/78/41 101/77/41
f 85/70/42 86/70/42 81/71/42
f 81/71/42 77/71/42 85/70/42
f 76/75/43 80/75/43 84/76/43
f 84/76/43 83/76/43 76/75/43
f 75/74/44 79/74/44 86/70/44
f 86/70/44 85/70/44 75/74/44
f 77/71/45 81/71/45 88/72/45
f 88/72/45 87/72/45 77/71/45
f 88/72/38 82/73/38 90/78/38
f 105/79/38 93/80/38 95/81/38
f 103/82/38 105/79/38 95/81/38
f 102/77/38 103/82/38 95/81/38
f 90/78/38 102/77/38 95/81/38
f 88/72/38 90/78/38 95/81/38
f 95/81/38 97/83/38 89/84/38
f 95/81/38 89/84/38 99/85/38
f 88/72/38 95/81/38 99/85/38
f 82/73/46 78/73/46 91/78/46
f 91/78/46 90/78/46 82/73/46
f 92/84/3 98/83/3 96/81/3
f 96/81/3 94/80/3 106/79/3
f 96/81/3 106/79/3 104/82/3
f 96/81/3 104/82/3 101/77/3
f 96/81/3 101/77/3 91/78/3
f 92/84/3 96/81/3 91/78/3
f 100/85/3 92/84/3 91/78/3
f 87/72/3 100/85/3 91/78/3
f 78/73/3 87/72/3 91/78/3
f 88/72/47 99/85/47 100/85/47
f 100/85/47 87/72/47 88/72/47
f 96/81/48 95/81/48 93/80/48
f 93/80/48 94/80/48 96/81/48
f 98/83/49 97/83/49 95/81/49
f 95/81/49 96/81/49 98/83/49
f 92/84/50 89/84/50 97/83/50
f 97/83/50 98/83/50 92/84/50
f 89/84/51 92/84/51 100/85/51
f 100/85/51 99/85/51 89/84/51
f 104/82/52 103/82/52 102/77/52
f 102/77/52 101/77/52 104/82/52
f 106/79/53 105/79/53 103/82/53
f 103/82/53 104/82/53 106/79/53
f 94/80/54 93/80/54 105/79/54
f 105/79/54 106/79/54 94/80/54
f 117/70/3 109/71/3 119/72/3
f 117/70/3 119/72/3 110/73/3
f 107/74/3 117/70/3 110/73/3
f 110/73/3 108/75/3 115/76/3
f 107/74/3 110/73/3 115/76/3
f 116/76/38 112/75/38 114/73/38
f 111/74/38 116/76/38 114/73/38
f 120/72/38 113/71/38 118/70/38
f 114/73/38 120/72/38 118/70/38
f 111/74/38 114/73/38 118/70/38
f 115/76/39 116/76/39 111/74/39
f 111/74/39 107/74/39 115/76/39
f 108/75/40 110/73/40 114/73/40
f 114/73/40 112/75/40 108/75/40
f 133/77/41 134/77/41 122/78/41
f 122/78/41 123/78/41 133/77/41
f 117/70/42 118/70/42 113/71/42
f 113/71/42 109/71/42 117/70/42
f 108/75/43 112/75/43 116/76/43
f 116/76/43 115/76/43 108/75/43
f 107/74/44 111/74/44 118/70/44
f 118/70/44 117/70/44 107/74/44
f 109/71/45 113/71/45 120/72/45
f 120/72/45 119/72/45 109/71/45
f 120/72/38 114/73/38 122/78/38
f 137/79/38 125/80/38 127/81/38
f 135/82/38 137/79/38 127/81/38
f 134/77/38 135/82/38 127/81/38
f 122/78/38 134/77/38 127/81/38
f 120/72/38 122/78/38 127/81/38
f 127/81/38 129/83/38 121/84/38
f 127/81/38 121/84/38 131/85/38
f 120/72/38 127/81/38 131/85/38
f 114/73/46 110/73/46 123/78/46
f 123/78/46 122/78/46 114/73/46
f 124/84/3 130/83/3 128/81/3
f 128/81/3 126/80/3 138/79/3
f 128/81/3 138/79/3 136/82/3
f 128/81/3 136/82/3 133/77/3
f 128/81/3 133/77/3 123/78/3
f 124/84/3 128/81/3 123/78/3
f 132/85/3 124/84/3 123/78/3
f 119/72/3 132/85/3 123/78/3
f 110/73/3 119/72/3 123/78/3
f 120/72/47 131/85/47 132/85/47
f 132/85/47 119/72/47 120/72/47
f 128/81/48 127/81/48 125/80/48
f 125/80/48 126/80/48 128/81/48
f 130/83/49 129/83/49 127/81/49
f 127/81/49 128/81/49 130/83/49
f 124/84/50 121/84/50 129/83/50
f 129/83/50 130/83/50 124/84/50
f 121/84/51 124/84/51 132/85/51
f 132/85/51 131/85/51 121/84/51
f 136/82/52 135/82/52 134/77/52
f 134/77/52 133/77/52 136/82/52
f 138/79/53 137/79/53 135/82/53
f 135/82/53 136/82/53 138/79/53
f 126/80/54 125/80/54 137/79/54
f 137/79/54 138/79/54 126/80/54
usemtl Material_#30
f 139/86/3 148/87/3 140/88/3
f 143/88/38 149/89/38 150/87/38
f 140/86/55 143/90/55 139/88/55
f 149/91/56 140/88/57 148/92/56
f 147/92/58 145/90/59 141/88/59
f 147/89/3 142/90/3 148/87/3
f 146/93/38 150/87/38 149/89/38
f 146/93/60 148/92/56 142/86/60
f 143/93/61 147/92/58 139/86/61
f 139/86/3 147/89/3 148/87/3
f 143/88/38 144/86/38 149/89/38
f 140/86/55 144/93/55 143/90/55
f 149/91/56 144/90/57 140/88/57
f 147/92/58 150/91/58 145/90/59
f 147/89/3 141/93/3 142/90/3
f 146/93/38 145/90/38 150/87/38
f 146/93/60 149/91/56 148/92/56
f 143/93/61 150/91/58 147/92/58
