{
	"asset":{
		"generator":"Khronos glTF Blender I/O v4.0.44",
		"version":"2.0"
	},
	"extensionsUsed":[
		"KHR_materials_specular",
		"KHR_materials_ior"
	],
	"scene":0,
	"scenes":[
		{
			"extras":{
				"scatter_properties":{}
			},
			"name":"Scene",
			"nodes":[
				0
			]
		}
	],
	"nodes":[
		{
			"mesh":0,
			"name":"farm"
		}
	],
	"materials":[
		{
			"doubleSided":true,
			"extensions":{
				"KHR_materials_specular":{
					"specularFactor":0.30000001192092896
				},
				"KHR_materials_ior":{
					"ior":1.4500000476837158
				}
			},
			"name":"Material.002",
			"pbrMetallicRoughness":{
				"baseColorFactor":[
					0.14239932596683502,
					0.060150399804115295,
					0.016221489757299423,
					1
				],
				"metallicFactor":0
			}
		},
		{
			"doubleSided":true,
			"extensions":{
				"KHR_materials_specular":{
					"specularFactor":0.7666666507720947
				},
				"KHR_materials_ior":{
					"ior":1.4500000476837158
				}
			},
			"name":"ruuf",
			"pbrMetallicRoughness":{
				"baseColorFactor":[
					0.29569345712661743,
					0.29569345712661743,
					0.29569345712661743,
					1
				],
				"roughnessFactor":0.574999988079071
			}
		},
		{
			"doubleSided":true,
			"extensions":{
				"KHR_materials_specular":{
					"specularFactor":0.29999998211860657
				},
				"KHR_materials_ior":{
					"ior":1.4500000476837158
				}
			},
			"name":"ruuf.001",
			"pbrMetallicRoughness":{
				"baseColorFactor":[
					0.23301644623279572,
					0.23301644623279572,
					0.23301644623279572,
					1
				],
				"roughnessFactor":0.7749999761581421
			}
		},
		{
			"doubleSided":true,
			"extensions":{
				"KHR_materials_specular":{
					"specularFactor":0.050000011920928955
				},
				"KHR_materials_ior":{
					"ior":1.4500000476837158
				}
			},
			"name":"Material.001",
			"pbrMetallicRoughness":{
				"baseColorFactor":[
					0.3343248963356018,
					0.09077402204275131,
					0.07816468179225922,
					1
				],
				"metallicFactor":0.19166666269302368,
				"roughnessFactor":0.6583333611488342
			}
		},
		{
			"doubleSided":true,
			"extensions":{
				"KHR_materials_specular":{
					"specularFactor":0.050000011920928955
				},
				"KHR_materials_ior":{
					"ior":1.4500000476837158
				}
			},
			"name":"Material.007",
			"pbrMetallicRoughness":{
				"baseColorFactor":[
					0.5070697069168091,
					0.13429312407970428,
					0.11519503593444824,
					1
				],
				"metallicFactor":0.19166666269302368,
				"roughnessFactor":0.6583333611488342
			}
		},
		{
			"doubleSided":true,
			"extensions":{
				"KHR_materials_specular":{
					"specularFactor":0.050000011920928955
				},
				"KHR_materials_ior":{
					"ior":1.4500000476837158
				}
			},
			"name":"Material.006",
			"pbrMetallicRoughness":{
				"baseColorFactor":[
					0.19598916172981262,
					0.05529516562819481,
					0.047892726957798004,
					1
				],
				"metallicFactor":0.19166666269302368,
				"roughnessFactor":0.6583333611488342
			}
		},
		{
			"doubleSided":true,
			"extensions":{
				"KHR_materials_specular":{
					"specularFactor":0.30000001192092896
				},
				"KHR_materials_ior":{
					"ior":1.4500000476837158
				}
			},
			"name":"derevo2",
			"pbrMetallicRoughness":{
				"baseColorFactor":[
					0.28101062774658203,
					0.11470014601945877,
					0.028417695313692093,
					1
				],
				"metallicFactor":0
			}
		},
		{
			"doubleSided":true,
			"extensions":{
				"KHR_materials_specular":{
					"specularFactor":0.30000001192092896
				},
				"KHR_materials_ior":{
					"ior":1.4500000476837158
				}
			},
			"name":"derevo_3",
			"pbrMetallicRoughness":{
				"baseColorFactor":[
					0.0732361227273941,
					0.03231155127286911,
					0.009635287337005138,
					1
				],
				"metallicFactor":0
			}
		},
		{
			"doubleSided":true,
			"name":"Material",
			"pbrMetallicRoughness":{
				"baseColorFactor":[
					0.4672030210494995,
					0.1423078179359436,
					0.11130934208631516,
					1
				],
				"metallicFactor":0,
				"roughnessFactor":0.5
			}
		},
		{
			"doubleSided":true,
			"name":"Material.004",
			"pbrMetallicRoughness":{
				"baseColorFactor":[
					0.19001919031143188,
					0.2844676077365875,
					0.3757505714893341,
					1
				],
				"metallicFactor":0,
				"roughnessFactor":0.5
			}
		},
		{
			"doubleSided":true,
			"name":"Material.009",
			"pbrMetallicRoughness":{
				"baseColorFactor":[
					0.6038177013397217,
					0.5247196555137634,
					0.3976174294948578,
					1
				],
				"metallicFactor":0,
				"roughnessFactor":0.38333332538604736
			}
		},
		{
			"doubleSided":true,
			"name":"Material.003",
			"pbrMetallicRoughness":{
				"baseColorFactor":[
					0.1679495871067047,
					0.1679495871067047,
					0.1679495871067047,
					1
				],
				"roughnessFactor":0.5
			}
		}
	],
	"meshes":[
		{
			"name":"Plane.581",
			"primitives":[
				{
					"attributes":{
						"POSITION":0,
						"NORMAL":1,
						"TEXCOORD_0":2
					},
					"indices":3,
					"material":0
				},
				{
					"attributes":{
						"POSITION":4,
						"NORMAL":5,
						"TEXCOORD_0":6
					},
					"indices":7,
					"material":1
				},
				{
					"attributes":{
						"POSITION":8,
						"NORMAL":9,
						"TEXCOORD_0":10
					},
					"indices":11,
					"material":2
				},
				{
					"attributes":{
						"POSITION":12,
						"NORMAL":13,
						"TEXCOORD_0":14
					},
					"indices":15,
					"material":3
				},
				{
					"attributes":{
						"POSITION":16,
						"NORMAL":17,
						"TEXCOORD_0":18
					},
					"indices":19,
					"material":4
				},
				{
					"attributes":{
						"POSITION":20,
						"NORMAL":21,
						"TEXCOORD_0":22
					},
					"indices":23,
					"material":5
				},
				{
					"attributes":{
						"POSITION":24,
						"NORMAL":25,
						"TEXCOORD_0":26
					},
					"indices":27,
					"material":6
				},
				{
					"attributes":{
						"POSITION":28,
						"NORMAL":29,
						"TEXCOORD_0":30
					},
					"indices":31,
					"material":7
				},
				{
					"attributes":{
						"POSITION":32,
						"NORMAL":33,
						"TEXCOORD_0":34
					},
					"indices":35,
					"material":8
				},
				{
					"attributes":{
						"POSITION":36,
						"NORMAL":37,
						"TEXCOORD_0":38
					},
					"indices":39,
					"material":9
				},
				{
					"attributes":{
						"POSITION":40,
						"NORMAL":41,
						"TEXCOORD_0":42
					},
					"indices":43,
					"material":10
				},
				{
					"attributes":{
						"POSITION":44,
						"NORMAL":45,
						"TEXCOORD_0":46
					},
					"indices":47,
					"material":11
				}
			]
		}
	],
	"accessors":[
		{
			"bufferView":0,
			"componentType":5126,
			"count":23778,
			"max":[
				5.595206260681152,
				5.357919692993164,
				-6.040680885314941
			],
			"min":[
				-5.052822589874268,
				-0.1005701944231987,
				-16.887813568115234
			],
			"type":"VEC3"
		},
		{
			"bufferView":1,
			"componentType":5126,
			"count":23778,
			"type":"VEC3"
		},
		{
			"bufferView":2,
			"componentType":5126,
			"count":23778,
			"type":"VEC2"
		},
		{
			"bufferView":3,
			"componentType":5123,
			"count":48912,
			"type":"SCALAR"
		},
		{
			"bufferView":4,
			"componentType":5126,
			"count":47296,
			"max":[
				5.653705596923828,
				5.473094940185547,
				-6.963439464569092
			],
			"min":[
				-4.998365879058838,
				0.07416407018899918,
				-16.88054656982422
			],
			"type":"VEC3"
		},
		{
			"bufferView":5,
			"componentType":5126,
			"count":47296,
			"type":"VEC3"
		},
		{
			"bufferView":6,
			"componentType":5126,
			"count":47296,
			"type":"VEC2"
		},
		{
			"bufferView":7,
			"componentType":5123,
			"count":88056,
			"type":"SCALAR"
		},
		{
			"bufferView":8,
			"componentType":5126,
			"count":1692,
			"max":[
				5.589113235473633,
				5.332617282867432,
				-7.076140403747559
			],
			"min":[
				-1.6673598289489746,
				2.674484968185425,
				-15.381136894226074
			],
			"type":"VEC3"
		},
		{
			"bufferView":9,
			"componentType":5126,
			"count":1692,
			"type":"VEC3"
		},
		{
			"bufferView":10,
			"componentType":5126,
			"count":1692,
			"type":"VEC2"
		},
		{
			"bufferView":11,
			"componentType":5123,
			"count":3240,
			"type":"SCALAR"
		},
		{
			"bufferView":12,
			"componentType":5126,
			"count":9698,
			"max":[
				5.372591972351074,
				5.3156538009643555,
				-7.155606746673584
			],
			"min":[
				-1.3650517463684082,
				1.4037429094314575,
				-16.43853187561035
			],
			"type":"VEC3"
		},
		{
			"bufferView":13,
			"componentType":5126,
			"count":9698,
			"type":"VEC3"
		},
		{
			"bufferView":14,
			"componentType":5126,
			"count":9698,
			"type":"VEC2"
		},
		{
			"bufferView":15,
			"componentType":5123,
			"count":18018,
			"type":"SCALAR"
		},
		{
			"bufferView":16,
			"componentType":5126,
			"count":1519,
			"max":[
				5.087141990661621,
				5.3284759521484375,
				-7.158572673797607
			],
			"min":[
				-1.104457139968872,
				1.404698371887207,
				-16.44269561767578
			],
			"type":"VEC3"
		},
		{
			"bufferView":17,
			"componentType":5126,
			"count":1519,
			"type":"VEC3"
		},
		{
			"bufferView":18,
			"componentType":5126,
			"count":1519,
			"type":"VEC2"
		},
		{
			"bufferView":19,
			"componentType":5123,
			"count":2838,
			"type":"SCALAR"
		},
		{
			"bufferView":20,
			"componentType":5126,
			"count":1078,
			"max":[
				5.091711044311523,
				5.184529781341553,
				-7.160389423370361
			],
			"min":[
				-1.104457139968872,
				2.0577123165130615,
				-16.434911727905273
			],
			"type":"VEC3"
		},
		{
			"bufferView":21,
			"componentType":5126,
			"count":1078,
			"type":"VEC3"
		},
		{
			"bufferView":22,
			"componentType":5126,
			"count":1078,
			"type":"VEC2"
		},
		{
			"bufferView":23,
			"componentType":5123,
			"count":2016,
			"type":"SCALAR"
		},
		{
			"bufferView":24,
			"componentType":5126,
			"count":640,
			"max":[
				5.03873348236084,
				2.169516086578369,
				-7.098022937774658
			],
			"min":[
				-1.0521605014801025,
				-0.03198336809873581,
				-16.416444778442383
			],
			"type":"VEC3"
		},
		{
			"bufferView":25,
			"componentType":5126,
			"count":640,
			"type":"VEC3"
		},
		{
			"bufferView":26,
			"componentType":5126,
			"count":640,
			"type":"VEC2"
		},
		{
			"bufferView":27,
			"componentType":5123,
			"count":1560,
			"type":"SCALAR"
		},
		{
			"bufferView":28,
			"componentType":5126,
			"count":442,
			"max":[
				5.031578063964844,
				2.1551899909973145,
				-7.087353706359863
			],
			"min":[
				-1.0489096641540527,
				-0.03197893872857094,
				-16.416444778442383
			],
			"type":"VEC3"
		},
		{
			"bufferView":29,
			"componentType":5126,
			"count":442,
			"type":"VEC3"
		},
		{
			"bufferView":30,
			"componentType":5126,
			"count":442,
			"type":"VEC2"
		},
		{
			"bufferView":31,
			"componentType":5123,
			"count":1092,
			"type":"SCALAR"
		},
		{
			"bufferView":32,
			"componentType":5126,
			"count":48,
			"max":[
				5.044934272766113,
				2.20963716506958,
				-7.1244635581970215
			],
			"min":[
				-1.0419633388519287,
				2.0130951404571533,
				-7.187711715698242
			],
			"type":"VEC3"
		},
		{
			"bufferView":33,
			"componentType":5126,
			"count":48,
			"type":"VEC3"
		},
		{
			"bufferView":34,
			"componentType":5126,
			"count":48,
			"type":"VEC2"
		},
		{
			"bufferView":35,
			"componentType":5123,
			"count":84,
			"type":"SCALAR"
		},
		{
			"bufferView":36,
			"componentType":5126,
			"count":408,
			"max":[
				5.061183452606201,
				4.544491291046143,
				-7.0888590812683105
			],
			"min":[
				-1.0864691734313965,
				0.4069942533969879,
				-15.4363374710083
			],
			"type":"VEC3"
		},
		{
			"bufferView":37,
			"componentType":5126,
			"count":408,
			"type":"VEC3"
		},
		{
			"bufferView":38,
			"componentType":5126,
			"count":408,
			"type":"VEC2"
		},
		{
			"bufferView":39,
			"componentType":5123,
			"count":612,
			"type":"SCALAR"
		},
		{
			"bufferView":40,
			"componentType":5126,
			"count":984,
			"max":[
				5.207836151123047,
				4.547624588012695,
				-6.949503421783447
			],
			"min":[
				-1.2006492614746094,
				0.3803386688232422,
				-15.547260284423828
			],
			"type":"VEC3"
		},
		{
			"bufferView":41,
			"componentType":5126,
			"count":984,
			"type":"VEC3"
		},
		{
			"bufferView":42,
			"componentType":5126,
			"count":984,
			"type":"VEC2"
		},
		{
			"bufferView":43,
			"componentType":5123,
			"count":1476,
			"type":"SCALAR"
		},
		{
			"bufferView":44,
			"componentType":5126,
			"count":1480,
			"max":[
				4.70742130279541,
				2.2003092765808105,
				-7.069568157196045
			],
			"min":[
				-0.5972459316253662,
				1.580058217048645,
				-7.172586917877197
			],
			"type":"VEC3"
		},
		{
			"bufferView":45,
			"componentType":5126,
			"count":1480,
			"type":"VEC3"
		},
		{
			"bufferView":46,
			"componentType":5126,
			"count":1480,
			"type":"VEC2"
		},
		{
			"bufferView":47,
			"componentType":5123,
			"count":4080,
			"type":"SCALAR"
		}
	],
	"bufferViews":[
		{
			"buffer":0,
			"byteLength":285336,
			"byteOffset":0,
			"target":34962
		},
		{
			"buffer":0,
			"byteLength":285336,
			"byteOffset":285336,
			"target":34962
		},
		{
			"buffer":0,
			"byteLength":190224,
			"byteOffset":570672,
			"target":34962
		},
		{
			"buffer":0,
			"byteLength":97824,
			"byteOffset":760896,
			"target":34963
		},
		{
			"buffer":0,
			"byteLength":567552,
			"byteOffset":858720,
			"target":34962
		},
		{
			"buffer":0,
			"byteLength":567552,
			"byteOffset":1426272,
			"target":34962
		},
		{
			"buffer":0,
			"byteLength":378368,
			"byteOffset":1993824,
			"target":34962
		},
		{
			"buffer":0,
			"byteLength":176112,
			"byteOffset":2372192,
			"target":34963
		},
		{
			"buffer":0,
			"byteLength":20304,
			"byteOffset":2548304,
			"target":34962
		},
		{
			"buffer":0,
			"byteLength":20304,
			"byteOffset":2568608,
			"target":34962
		},
		{
			"buffer":0,
			"byteLength":13536,
			"byteOffset":2588912,
			"target":34962
		},
		{
			"buffer":0,
			"byteLength":6480,
			"byteOffset":2602448,
			"target":34963
		},
		{
			"buffer":0,
			"byteLength":116376,
			"byteOffset":2608928,
			"target":34962
		},
		{
			"buffer":0,
			"byteLength":116376,
			"byteOffset":2725304,
			"target":34962
		},
		{
			"buffer":0,
			"byteLength":77584,
			"byteOffset":2841680,
			"target":34962
		},
		{
			"buffer":0,
			"byteLength":36036,
			"byteOffset":2919264,
			"target":34963
		},
		{
			"buffer":0,
			"byteLength":18228,
			"byteOffset":2955300,
			"target":34962
		},
		{
			"buffer":0,
			"byteLength":18228,
			"byteOffset":2973528,
			"target":34962
		},
		{
			"buffer":0,
			"byteLength":12152,
			"byteOffset":2991756,
			"target":34962
		},
		{
			"buffer":0,
			"byteLength":5676,
			"byteOffset":3003908,
			"target":34963
		},
		{
			"buffer":0,
			"byteLength":12936,
			"byteOffset":3009584,
			"target":34962
		},
		{
			"buffer":0,
			"byteLength":12936,
			"byteOffset":3022520,
			"target":34962
		},
		{
			"buffer":0,
			"byteLength":8624,
			"byteOffset":3035456,
			"target":34962
		},
		{
			"buffer":0,
			"byteLength":4032,
			"byteOffset":3044080,
			"target":34963
		},
		{
			"buffer":0,
			"byteLength":7680,
			"byteOffset":3048112,
			"target":34962
		},
		{
			"buffer":0,
			"byteLength":7680,
			"byteOffset":3055792,
			"target":34962
		},
		{
			"buffer":0,
			"byteLength":5120,
			"byteOffset":3063472,
			"target":34962
		},
		{
			"buffer":0,
			"byteLength":3120,
			"byteOffset":3068592,
			"target":34963
		},
		{
			"buffer":0,
			"byteLength":5304,
			"byteOffset":3071712,
			"target":34962
		},
		{
			"buffer":0,
			"byteLength":5304,
			"byteOffset":3077016,
			"target":34962
		},
		{
			"buffer":0,
			"byteLength":3536,
			"byteOffset":3082320,
			"target":34962
		},
		{
			"buffer":0,
			"byteLength":2184,
			"byteOffset":3085856,
			"target":34963
		},
		{
			"buffer":0,
			"byteLength":576,
			"byteOffset":3088040,
			"target":34962
		},
		{
			"buffer":0,
			"byteLength":576,
			"byteOffset":3088616,
			"target":34962
		},
		{
			"buffer":0,
			"byteLength":384,
			"byteOffset":3089192,
			"target":34962
		},
		{
			"buffer":0,
			"byteLength":168,
			"byteOffset":3089576,
			"target":34963
		},
		{
			"buffer":0,
			"byteLength":4896,
			"byteOffset":3089744,
			"target":34962
		},
		{
			"buffer":0,
			"byteLength":4896,
			"byteOffset":3094640,
			"target":34962
		},
		{
			"buffer":0,
			"byteLength":3264,
			"byteOffset":3099536,
			"target":34962
		},
		{
			"buffer":0,
			"byteLength":1224,
			"byteOffset":3102800,
			"target":34963
		},
		{
			"buffer":0,
			"byteLength":11808,
			"byteOffset":3104024,
			"target":34962
		},
		{
			"buffer":0,
			"byteLength":11808,
			"byteOffset":3115832,
			"target":34962
		},
		{
			"buffer":0,
			"byteLength":7872,
			"byteOffset":3127640,
			"target":34962
		},
		{
			"buffer":0,
			"byteLength":2952,
			"byteOffset":3135512,
			"target":34963
		},
		{
			"buffer":0,
			"byteLength":17760,
			"byteOffset":3138464,
			"target":34962
		},
		{
			"buffer":0,
			"byteLength":17760,
			"byteOffset":3156224,
			"target":34962
		},
		{
			"buffer":0,
			"byteLength":11840,
			"byteOffset":3173984,
			"target":34962
		},
		{
			"buffer":0,
			"byteLength":8160,
			"byteOffset":3185824,
			"target":34963
		}
	],
	"buffers":[
		{
			"byteLength":3193984,
			"uri":"Granja.bin"
		}
	]
}
